# File produced by Open Asset Import Library (http://www.assimp.sf.net)
# (assimp v3.1.187496374)

mtllib ACBox.obj.mtl

# 41 vertex positions
v  0.425 -0.425 0.5
v  -0.425 -0.425 0.425
v  -0.425 -0.425 0.5
v  0.425 -0.425 0.425
v  -0.5 -0.425 -0.425
v  -0.5 -0.425 0.425
v  -0.425 -0.425 -0.425
v  0.425 -0.425 -0.425
v  -0.425 -0.425 -0.5
v  0.5 -0.425 0.425
v  0.5 -0.425 -0.425
v  0.425 -0.425 -0.5
v  0.425 0.425 0.425
v  0.425 0.425 0.5
v  0.425 0.5 -0.425
v  0.425 0.5 0.425
v  0.425 0.425 -0.425
v  0.425 -0.5 0.425
v  0.425 -0.5 -0.425
v  0.425 0.425 -0.5
v  -0.425 -0.5 0.425
v  -0.5 0.425 0.425
v  -0.425 0.425 0.425
v  0.5 0.425 0.425
v  -0.425 0.5 0.425
v  -0.425 0.425 0.5
v  -0.425 -0.5 -0.425
v  -0.425 0.425 -0.425
v  -0.425 0.5 -0.425
v  -0.425 0.425 -0.5
v  0.5 0.425 -0.425
v  -0.5 0.425 -0.425
v  -0.5 -0.5 -0.5
v  -0.5 -0.5 0.5
v  0.5 -0.5 -0.5
v  0.5 -0.5 0.5
v  0.5 0.5 0.5
v  -0.5 0.5 0.5
v  -0.5 0.5 -0.5
v  0.5 0 -0.5
v  0.5 0.5 -0.5

# 0 UV coordinates

# 8 vertex normals
vn 0 0.0254 0
vn -0.0254 0 0
vn -0.0254 0 -2.03739e-17
vn 0 0 -0.0254
vn 0.0254 0 0
vn 0 -0.0254 0
vn 0 0 0.0254
vn 0.0254 0 -1.52805e-18

# Mesh 'SketchUp' with 98 faces
g SketchUp
usemtl ID4
f  1//1 2//1 3//1
f  2//1 1//1 4//1
f  2//1 5//1 6//1
f  5//1 2//1 7//1
f  8//1 9//1 7//1
f  10//1 8//1 4//1
f  8//1 10//1 11//1
f  9//1 8//1 12//1
f  13//2 1//2 14//2
f  1//2 13//2 4//2
f  15//2 13//2 16//2
f  13//2 15//2 17//2
f  8//2 18//2 4//2
f  18//2 8//2 19//2
f  20//3 8//2 17//2
f  8//2 20//3 12//3
f  2//4 18//4 21//4
f  18//4 2//4 4//4
f  22//4 2//4 6//4
f  2//4 22//4 23//4
f  13//4 10//4 4//4
f  10//4 13//4 24//4
f  25//4 13//4 23//4
f  13//4 25//4 16//4
f  2//5 26//5 3//5
f  26//5 2//5 23//5
f  27//5 2//5 21//5
f  2//5 27//5 7//5
f  28//5 25//5 23//5
f  25//5 28//5 29//5
f  9//5 28//5 7//5
f  28//5 9//5 30//5
f  13//6 26//6 23//6
f  26//6 13//6 14//6
f  31//6 13//6 17//6
f  13//6 31//6 24//6
f  22//6 28//6 23//6
f  28//6 22//6 32//6
f  20//6 28//6 30//6
f  28//6 20//6 17//6
f  8//7 27//7 19//7
f  27//7 8//7 7//7
f  31//7 8//7 11//7
f  8//7 31//7 17//7
f  28//7 5//7 7//7
f  5//7 28//7 32//7
f  15//7 28//7 17//7
f  28//7 15//7 29//7
f  33//6 27//6 34//6
f  27//6 33//6 35//6
f  27//6 35//6 19//6
f  21//6 34//6 27//6
f  34//6 21//6 36//6
f  36//6 21//6 18//6
f  36//6 18//6 35//6
f  19//6 35//6 18//6
f  36//7 1//7 34//7
f  1//7 36//7 37//7
f  1//7 37//7 14//7
f  3//7 34//7 1//7
f  34//7 3//7 38//7
f  38//7 3//7 26//7
f  38//7 26//7 37//7
f  14//7 37//7 26//7
f  38//2 22//2 34//2
f  22//2 38//2 39//2
f  22//2 39//2 32//2
f  6//2 34//2 22//2
f  34//2 6//2 33//2
f  33//2 6//2 5//2
f  33//2 5//2 39//2
f  32//2 39//2 5//2
f  33//4 9//4 35//4
f  9//4 33//4 39//4
f  9//4 39//4 30//4
f  12//4 35//4 9//4
f  35//4 12//4 40//4
f  40//4 12//4 20//4
f  40//4 20//4 41//4
f  30//4 39//4 20//4
f  41//4 20//4 39//4
f  36//8 10//8 37//8
f  10//8 36//8 35//8
f  10//8 35//8 11//8
f  24//8 37//8 10//8
f  37//8 24//8 41//8
f  41//8 24//8 31//8
f  41//8 31//8 35//8
f  41//8 35//8 40//8
f  11//8 35//8 31//8
f  38//1 25//1 39//1
f  25//1 38//1 37//1
f  25//1 37//1 16//1
f  29//1 39//1 25//1
f  39//1 29//1 41//1
f  41//1 29//1 15//1
f  41//1 15//1 37//1
f  16//1 37//1 15//1

# Mesh 'SketchUp_ID16' with 24 faces
g SketchUp_ID16
usemtl ID17
f  23//4 4//4 2//4
f  4//4 23//4 13//4
f  13//7 23//7 4//7
f  2//7 4//7 23//7
f  17//2 4//2 13//2
f  4//2 17//2 8//2
f  8//5 17//5 4//5
f  13//5 4//5 17//5
f  4//1 7//1 2//1
f  7//1 4//1 8//1
f  8//6 4//6 7//6
f  2//6 7//6 4//6
f  7//5 23//5 2//5
f  23//5 7//5 28//5
f  28//2 7//2 23//2
f  2//2 23//2 7//2
f  17//6 23//6 28//6
f  23//6 17//6 13//6
f  13//1 17//1 23//1
f  28//1 23//1 17//1
f  17//7 7//7 8//7
f  7//7 17//7 28//7
f  28//4 17//4 7//4
f  8//4 7//4 17//4

