# File produced by Open Asset Import Library (http://www.assimp.sf.net)
# (assimp v3.1.187496374)

mtllib ACRoom.obj.mtl

# 177 vertex positions
v  -1.69571 0.695711 0.05
v  -1.9 0.9 0.05
v  -1.9 0.491421 0.05
v  -1.49142 0.9 0.05
v  -1.9 0.491421 0.075
v  -1.69571 0.695711 0.075
v  -1.49142 0.9 0.075
v  -1.9 0.9 0.075
v  -2.1 0.9 0.05
v  -2.30429 0.695711 0.05
v  -2.1 0.491421 0.05
v  -2.50858 0.9 0.05
v  -2.1 0.491421 0.075
v  -2.30429 0.695711 0.075
v  -2.50858 0.9 0.075
v  -2.1 0.9 0.075
v  -1.64685 0.532439 0.05
v  -1.95 -0.45 0.05
v  -1.31937 -0.45 0.05
v  -1.95 0.229289 0.05
v  -1.31937 -0.45 0.075
v  -1.95 -0.45 0.075
v  -1.64685 0.532439 0.075
v  -1.95 0.229289 0.075
v  -2.05 0.229289 0.05
v  -2.68063 -0.45 0.05
v  -2.05 -0.45 0.05
v  -2.35315 0.532439 0.05
v  -2.35315 0.532439 0.075
v  -2.05 0.229289 0.075
v  -2.68063 -0.45 0.075
v  -2.05 -0.45 0.075
v  1.95 0.229289 0.05
v  1.31937 -0.45 0.05
v  1.95 -0.45 0.05
v  1.64685 0.532439 0.05
v  1.95 -0.45 0.075
v  1.31937 -0.45 0.075
v  1.95 0.229289 0.075
v  1.64685 0.532439 0.075
v  2.35315 0.532439 0.05
v  2.05 -0.45 0.05
v  2.68063 -0.45 0.05
v  2.05 0.229289 0.05
v  2.68063 -0.45 0.075
v  2.35315 0.532439 0.075
v  2.05 0.229289 0.075
v  2.05 -0.45 0.075
v  2.30429 0.695711 0.05
v  2.1 0.9 0.05
v  2.1 0.491421 0.05
v  2.50858 0.9 0.05
v  2.1 0.9 0.075
v  2.1 0.491421 0.075
v  2.30429 0.695711 0.075
v  2.50858 0.9 0.075
v  1.9 0.9 0.05
v  1.69571 0.695711 0.05
v  1.9 0.491421 0.05
v  1.49142 0.9 0.05
v  1.49142 0.9 0.075
v  1.9 0.9 0.075
v  1.69571 0.695711 0.075
v  1.9 0.491421 0.075
v  0.5 1 0.075
v  -0.5 1 0.05
v  -0.5 1 0.075
v  -0.5 1 -0.05
v  0.5 1 -0.05
v  0.5 1 0.05
v  -0.5 -1 -0.05
v  -0.5 -0.55 0.05
v  -0.5 -1 0.05
v  -0.5 -0.5 0.05
v  -0.5 0 0.05
v  -0.5 -0.5 0.075
v  -0.5 -0.55 0.075
v  -1.25 1 0.075
v  -1.25 1 0.05
v  2.75 -0.5 0.075
v  1.25 -0.5 0.075
v  2.375 0.625 0.075
v  0.5 -0.5 0.075
v  3.525 -0.5 0.075
v  1.625 0.625 0.075
v  1.25 1 0.075
v  2.75 1 0.075
v  3.525 1.05 0.075
v  3.525 1 0.075
v  -3.525 1.05 0.075
v  -1.625 0.625 0.075
v  -2.75 1 0.075
v  -3.525 1 0.075
v  -1.25 -0.5 0.075
v  -2.75 -0.5 0.075
v  -2.375 0.625 0.075
v  -3.525 -0.55 0.075
v  -3.525 -0.5 0.075
v  0.5 -0.55 0.075
v  3.525 -0.55 0.075
v  1.25 1 0.05
v  0.5 0 0.05
v  0.5 -0.5 0.05
v  0.5 -0.55 0.05
v  0.5 -1 0.05
v  0.5 -1 -0.05
v  -3.4 1.4 -0.05
v  -3.4 -1 -0.05
v  0.5 1.4 -0.05
v  3.4 -1 -0.05
v  3.4 1.4 -0.05
v  -3.5 -1 -3.05
v  -3.4 -1 -2.95
v  -3.5 -1 0.05
v  3.5 -1 -3.05
v  3.4 -1 -2.95
v  3.5 -1 0.05
v  -1.25 -0.5 0.05
v  -1.625 0.625 0.05
v  -3.5 -0.55 0.05
v  -3.525 -0.55 0.05
v  -3.5 -0.55 -3.05
v  -3.525 -0.55 -3.05
v  3.5 -0.55 -3.075
v  3.5 -0.55 -3.05
v  -3.525 -0.55 -3.075
v  3.525 -0.55 -3.075
v  3.5 -0.55 0.05
v  3.525 -0.55 0.05
v  1.625 0.625 0.05
v  1.25 -0.5 0.05
v  3.525 -0.5 0.05
v  3.525 -0.5 -3.075
v  2.75 -0.5 0.05
v  3.5 -0.5 0.05
v  3.5 -0.5 -3.05
v  3.5 -0.5 -3.075
v  -3.5 -0.5 -3.05
v  -3.525 -0.5 -3.075
v  -3.525 -0.5 -3.05
v  -3.5 -0.5 0.05
v  -3.525 -0.5 0.05
v  -2.75 -0.5 0.05
v  2.375 0.625 0.05
v  2.75 1 0.05
v  3.5 1 0.05
v  3.525 1 0.05
v  3.5 1 -3.05
v  3.525 1 -3.075
v  3.5 1 -3.075
v  -3.5 1 -3.05
v  -3.525 1 -3.05
v  -3.525 1 -3.075
v  -3.525 1 0.05
v  -3.5 1 0.05
v  -2.75 1 0.05
v  3.525 1.05 0.05
v  3.525 1.05 -3.075
v  -3.525 1.05 0.05
v  -3.5 1.05 0.05
v  3.5 1.05 0.05
v  -3.525 1.05 -3.05
v  -3.5 1.05 -3.05
v  -3.525 1.05 -3.075
v  3.5 1.05 -3.075
v  3.5 1.05 -3.05
v  -2.375 0.625 0.05
v  -3.4 1.4 -2.95
v  3.4 1.4 -2.95
v  3.5 1.5 0.05
v  -3.5 1.5 0.05
v  3.5 1.5 -3.05
v  -3.5 1.5 -3.05
v  3.4 1.5 -0.05
v  0.5 1.5 -0.05
v  3.4 1.5 -2.95
v  -3.4 1.5 -2.95

# 0 UV coordinates

# 34 vertex normals
vn 0 0 0.0254
vn -0.0179605 0.0179605 0
vn 1.12197e-17 -0.0254 0
vn 0.0254 0 0
vn 0.0179605 0.0179605 0
vn -0.0254 -0 0
vn 0 0.0254 0
vn -0.0240966 -0.00803219 0
vn 0.0179605 -0.0179605 0
vn -0.0179605 -0.0179605 0
vn 0.0240966 -0.00803219 0
vn -1.12197e-17 -0.0254 0
vn 0 -0.0254 0
vn 1.49797e-20 -1.64774e-19 0.0254
vn -9.20515e-20 -1.19796e-19 -0.0254
vn -3.20236e-19 -6.17475e-19 -0.0254
vn -3.27439e-19 -0.0254 -1.49353e-32
vn -7.64023e-19 -0.0254 0
vn -0.0240966 0.00803219 0
vn 3.05609e-18 0.0254 -1.07002e-33
vn 0 0.0254 -7.39377e-19
vn 0 0.0254 1.49015e-32
vn -3.05609e-18 0.0254 0
vn 0.0240966 0.00803219 0
vn 0 0.0254 -4.43626e-18
vn -6.53551e-35 -0.0254 -3.16147e-18
vn -0.0254 -3.82011e-18 3.16147e-18
vn 1.34828e-18 0 0.0254
vn 2.61951e-18 1.60716e-33 -0.0254
vn 0.0254 2.03739e-17 2.95751e-18
vn 2.61951e-18 1.49015e-32 -0.0254
vn 2.61951e-18 0 -0.0254
vn 0.0254 -2.03739e-17 2.95751e-18
vn 2.61951e-18 -1.89759e-33 -0.0254

# Mesh 'SketchUp' with 342 faces
g SketchUp
usemtl ID4
f  1//1 2//1 3//1
f  2//1 1//1 4//1
f  1//2 5//2 6//2
f  5//2 1//2 3//2
f  6//2 4//2 1//2
f  4//2 6//2 7//2
f  4//3 8//3 2//3
f  8//3 4//3 7//3
f  3//4 8//4 5//4
f  8//4 3//4 2//4
f  9//1 10//1 11//1
f  10//1 9//1 12//1
f  13//5 10//5 14//5
f  10//5 13//5 11//5
f  10//5 15//5 14//5
f  15//5 10//5 12//5
f  9//6 13//6 16//6
f  13//6 9//6 11//6
f  9//3 15//3 12//3
f  15//3 9//3 16//3
f  17//1 18//1 19//1
f  18//1 17//1 20//1
f  21//7 18//7 22//7
f  18//7 21//7 19//7
f  17//8 21//8 23//8
f  21//8 17//8 19//8
f  17//9 24//9 20//9
f  24//9 17//9 23//9
f  18//4 24//4 22//4
f  24//4 18//4 20//4
f  25//1 26//1 27//1
f  26//1 25//1 28//1
f  25//10 29//10 28//10
f  29//10 25//10 30//10
f  26//11 29//11 31//11
f  29//11 26//11 28//11
f  32//7 26//7 31//7
f  26//7 32//7 27//7
f  25//6 32//6 30//6
f  32//6 25//6 27//6
f  33//1 34//1 35//1
f  34//1 33//1 36//1
f  37//7 34//7 38//7
f  34//7 37//7 35//7
f  33//6 37//6 39//6
f  37//6 33//6 35//6
f  36//10 39//10 40//10
f  39//10 36//10 33//10
f  34//11 40//11 38//11
f  40//11 34//11 36//11
f  41//1 42//1 43//1
f  42//1 41//1 44//1
f  41//8 45//8 46//8
f  45//8 41//8 43//8
f  41//9 47//9 44//9
f  47//9 41//9 46//9
f  42//4 47//4 48//4
f  47//4 42//4 44//4
f  45//7 42//7 48//7
f  42//7 45//7 43//7
f  49//1 50//1 51//1
f  50//1 49//1 52//1
f  51//4 53//4 54//4
f  53//4 51//4 50//4
f  49//2 54//2 55//2
f  54//2 49//2 51//2
f  55//2 52//2 49//2
f  52//2 55//2 56//2
f  52//12 53//12 50//12
f  53//12 52//12 56//12
f  57//1 58//1 59//1
f  58//1 57//1 60//1
f  57//12 61//12 60//12
f  61//12 57//12 62//12
f  58//5 61//5 63//5
f  61//5 58//5 60//5
f  63//5 59//5 58//5
f  59//5 63//5 64//5
f  57//6 64//6 62//6
f  64//6 57//6 59//6
f  65//7 66//7 67//7
f  66//7 65//7 68//7
f  68//7 65//7 69//7
f  69//7 65//7 70//7
f  71//4 72//4 73//4
f  72//4 71//4 74//4
f  74//4 71//4 75//4
f  75//4 71//4 66//4
f  66//4 71//4 68//4
f  72//4 76//4 77//4
f  76//4 72//4 74//4
f  66//13 78//13 79//13
f  78//13 66//13 67//13
f  80//14 45//14 81//14
f  45//14 80//14 82//14
f  83//14 84//14 80//14
f  83//14 80//14 81//14
f  45//14 82//14 46//14
f  38//14 81//14 45//14
f  38//14 45//14 48//14
f  81//14 38//14 85//14
f  38//14 48//14 37//14
f  85//14 38//14 40//14
f  47//14 37//14 48//14
f  37//14 47//14 39//14
f  46//14 54//14 47//14
f  39//14 47//14 40//14
f  40//14 47//14 64//14
f  64//14 47//14 54//14
f  40//14 64//14 63//14
f  40//14 63//14 85//14
f  85//14 63//14 86//14
f  86//14 63//14 61//14
f  87//14 88//14 86//14
f  86//14 88//14 65//14
f  86//14 61//14 87//14
f  62//14 87//14 61//14
f  53//14 87//14 62//14
f  64//14 53//14 62//14
f  53//14 64//14 54//14
f  54//14 46//14 55//14
f  55//14 46//14 82//14
f  55//14 82//14 87//14
f  55//14 87//14 56//14
f  56//14 87//14 53//14
f  88//14 87//14 89//14
f  65//14 88//14 67//14
f  67//14 88//14 78//14
f  90//14 78//14 88//14
f  6//14 91//14 78//14
f  6//14 78//14 7//14
f  7//14 78//14 92//14
f  92//14 78//14 93//14
f  93//14 78//14 90//14
f  5//14 23//14 6//14
f  6//14 23//14 91//14
f  21//14 94//14 91//14
f  21//14 91//14 23//14
f  30//14 24//14 23//14
f  30//14 23//14 5//14
f  5//14 16//14 13//14
f  16//14 5//14 8//14
f  30//14 5//14 13//14
f  32//14 24//14 30//14
f  13//14 29//14 30//14
f  24//14 32//14 22//14
f  31//14 22//14 32//14
f  31//14 21//14 22//14
f  95//14 31//14 96//14
f  31//14 95//14 21//14
f  96//14 31//14 29//14
f  29//14 13//14 14//14
f  29//14 14//14 96//14
f  96//14 14//14 92//14
f  92//14 14//14 15//14
f  92//14 15//14 16//14
f  92//14 16//14 7//14
f  16//14 8//14 7//14
f  95//14 94//14 21//14
f  95//14 76//14 94//14
f  76//14 97//14 77//14
f  97//14 76//14 98//14
f  98//14 76//14 95//14
f  99//14 84//14 83//14
f  84//14 99//14 100//14
f  101//13 65//13 70//13
f  65//13 101//13 86//13
f  69//6 102//6 70//6
f  102//6 69//6 103//6
f  103//6 69//6 104//6
f  104//6 69//6 105//6
f  105//6 69//6 106//6
f  103//6 99//6 83//6
f  99//6 103//6 104//6
f  107//15 71//15 108//15
f  71//15 107//15 68//15
f  68//15 107//15 69//15
f  69//15 107//15 109//15
f  69//15 110//16 106//16
f  110//16 69//15 111//16
f  111//16 69//15 109//15
f  112//13 113//13 114//13
f  113//13 112//13 115//13
f  113//13 115//13 116//13
f  108//13 114//13 113//13
f  114//13 108//13 73//13
f  73//13 108//13 71//13
f  116//13 115//13 110//13
f  110//13 115//13 117//13
f  110//13 105//13 106//13
f  105//13 110//13 117//13
f  75//1 118//1 74//1
f  118//1 75//1 119//1
f  119//1 75//1 66//1
f  119//1 66//1 79//1
f  76//7 118//7 94//7
f  118//7 76//7 74//7
f  120//13 97//13 121//13
f  97//13 120//13 77//13
f  77//13 120//13 72//13
f  121//13 122//13 120//13
f  122//13 121//13 123//13
f  123//13 124//13 122//13
f  122//13 124//13 125//13
f  124//13 123//13 126//17
f  127//13 125//13 124//13
f  125//13 127//13 128//18
f  128//18 127//13 129//18
f  128//18 99//18 104//18
f  99//18 128//18 100//18
f  100//18 128//18 129//18
f  72//1 114//1 73//1
f  114//1 72//1 120//1
f  119//9 78//9 91//9
f  78//9 119//9 79//9
f  101//10 85//10 86//10
f  85//10 101//10 130//10
f  130//19 81//19 85//19
f  81//19 130//19 131//19
f  81//7 103//7 83//7
f  103//7 81//7 131//7
f  129//4 84//4 100//4
f  84//4 129//4 132//4
f  132//4 129//4 127//4
f  132//4 127//4 133//4
f  84//20 134//20 80//20
f  134//20 84//20 135//20
f  135//20 84//20 132//20
f  132//20 136//21 135//20
f  136//21 132//20 137//21
f  137//21 132//20 133//21
f  137//21 138//21 136//21
f  139//22 138//21 137//21
f  140//21 141//23 138//21
f  138//21 139//22 140//21
f  141//23 140//21 142//23
f  142//23 95//23 141//23
f  141//23 95//23 143//23
f  95//23 142//23 98//23
f  134//24 82//24 80//24
f  82//24 134//24 144//24
f  144//9 87//9 82//9
f  87//9 144//9 145//9
f  146//13 87//13 145//13
f  87//13 146//13 89//13
f  89//13 146//13 147//13
f  148//13 149//13 146//13
f  146//13 149//13 147//13
f  149//13 148//13 150//13
f  151//13 150//13 148//13
f  150//13 152//13 153//13
f  152//13 150//13 151//13
f  151//13 154//13 152//13
f  154//13 151//13 155//13
f  155//13 93//13 154//13
f  93//13 155//13 92//13
f  92//13 155//13 156//13
f  147//4 88//4 89//4
f  88//4 147//4 157//4
f  157//4 147//4 149//4
f  157//4 149//4 158//4
f  88//7 159//7 90//7
f  159//7 88//7 160//7
f  160//7 88//7 161//7
f  161//7 88//7 157//7
f  160//7 162//25 159//7
f  162//25 160//7 163//25
f  163//25 164//7 162//25
f  164//7 163//25 165//25
f  165//25 163//25 166//25
f  166//25 157//7 165//25
f  165//25 157//7 158//25
f  157//7 166//25 161//7
f  159//6 93//6 90//6
f  93//6 159//6 154//6
f  154//6 159//6 162//6
f  154//6 162//6 152//6
f  152//6 162//6 164//6
f  152//6 164//6 153//6
f  156//10 96//10 92//10
f  96//10 156//10 167//10
f  167//19 95//19 96//19
f  95//19 167//19 143//19
f  142//6 97//6 98//6
f  97//6 142//6 121//6
f  121//6 142//6 140//6
f  121//6 140//6 123//6
f  123//6 140//6 139//6
f  123//6 139//6 126//6
f  118//24 91//24 94//24
f  91//24 118//24 119//24
f  130//1 103//1 131//1
f  103//1 130//1 102//1
f  102//1 130//1 70//1
f  70//1 130//1 101//1
f  128//1 105//1 117//1
f  105//1 128//1 104//1
f  113//4 107//4 108//4
f  107//4 113//4 168//4
f  169//26 107//26 168//26
f  107//26 169//26 109//26
f  109//26 169//26 111//26
f  111//27 116//27 110//27
f  116//27 111//27 169//27
f  169//28 113//28 116//28
f  113//28 169//28 168//28
f  122//6 114//6 120//6
f  114//6 122//6 112//6
f  122//29 115//29 112//29
f  115//29 122//29 125//29
f  115//30 128//30 117//30
f  128//30 115//30 125//30
f  126//31 127//31 124//31
f  127//31 126//31 133//31
f  133//31 126//31 139//31
f  133//31 139//31 137//31
f  146//1 134//1 135//1
f  134//1 146//1 144//1
f  144//1 146//1 145//1
f  164//32 150//32 153//32
f  150//32 164//32 149//32
f  149//32 164//32 158//32
f  158//32 164//32 165//32
f  170//1 160//1 161//1
f  160//1 170//1 171//1
f  143//1 155//1 141//1
f  155//1 143//1 167//1
f  155//1 167//1 156//1
f  136//4 146//4 135//4
f  146//4 136//4 148//4
f  166//33 170//33 161//33
f  170//33 166//33 172//33
f  173//6 160//6 171//6
f  160//6 173//6 163//6
f  170//7 173//7 171//7
f  173//7 170//7 172//7
f  173//34 166//34 163//34
f  166//34 173//34 172//34
f  151//32 136//32 138//32
f  136//32 151//32 148//32
f  151//6 141//6 155//6
f  141//6 151//6 138//6

# Mesh 'SketchUp' with 4 faces
g SketchUp
usemtl ID59
l  111 174
l  109 175
l  169 176
l  168 177

