# File produced by Open Asset Import Library (http://www.assimp.sf.net)
# (assimp v3.1.187496374)

mtllib ClosedFinalDoorLeft.obj.mtl

# 25 vertex positions
v  -0.279829 -0.5 0.05
v  -0.4 -0.95 0.05
v  -0.0773293 -0.95 0.05
v  -0.4 0.95 0.05
v  0.170171 0.5 0.05
v  -0.0323293 0.95 0.05
v  -0.279829 -0.5 0.025
v  0.170171 0.5 0.025
v  -0.0323293 0.95 0.025
v  -0.4 0.95 0.025
v  -0.4 -0.95 0.025
v  -0.0773293 -0.95 0.025
v  1.80478e-16 -1 0.025
v  -0.45 -1 0.025
v  -0.225 -0.5 0.025
v  -0.45 1 0.025
v  1.80478e-16 1 0.025
v  0.225 0.5 0.025
v  -0.225 -0.5 -0.025
v  0.225 0.5 -0.025
v  1.80478e-16 1 -0.025
v  -0.45 1 -0.025
v  -0.45 -1 0
v  -0.45 -1 -0.025
v  1.80478e-16 -1 -0.025

# 0 UV coordinates

# 9 vertex normals
vn 0 0 0.0254
vn 0.0231628 -0.0104233 0
vn 0.0231628 0.0104233 0
vn 0 0.0254 0
vn -0.0254 -0 0
vn 0 -0.0254 0
vn 0.0231628 -0.0104233 -1.06182e-18
vn 0.0231628 0.0104233 -5.30908e-19
vn 1.98964e-20 1.49223e-20 -0.0254

# Mesh 'SketchUp' with 46 faces
g SketchUp
usemtl ID4
f  1//1 2//1 3//1
f  2//1 1//1 4//1
f  4//1 1//1 5//1
f  4//1 5//1 6//1
f  7//2 5//2 1//2
f  5//2 7//2 8//2
f  8//3 6//3 5//3
f  6//3 8//3 9//3
f  6//4 10//4 4//4
f  10//4 6//4 9//4
f  10//5 2//5 4//5
f  2//5 10//5 11//5
f  12//6 2//6 11//6
f  2//6 12//6 3//6
f  12//3 1//3 3//3
f  1//3 12//3 7//3
f  13//1 12//1 14//1
f  12//1 13//1 15//1
f  12//1 15//1 7//1
f  11//1 14//1 12//1
f  14//1 11//1 16//1
f  16//1 11//1 10//1
f  16//1 10//1 17//1
f  9//1 17//1 10//1
f  8//1 18//1 17//1
f  8//1 17//1 9//1
f  7//1 18//1 8//1
f  7//1 15//1 18//1
f  19//7 18//7 15//7
f  18//7 19//7 20//7
f  20//3 17//3 18//3
f  17//3 20//3 21//3
f  17//4 22//4 16//4
f  22//4 17//4 21//4
f  22//5 14//5 16//5
f  14//5 22//5 23//5
f  23//5 22//5 24//5
f  25//6 23//6 24//6
f  23//6 25//6 14//6
f  14//6 25//6 13//6
f  25//8 15//8 13//8
f  15//8 25//8 19//8
f  24//9 19//9 25//9
f  19//9 24//9 22//9
f  19//9 22//9 20//9
f  20//9 22//9 21//9

