# File produced by Open Asset Import Library (http://www.assimp.sf.net)
# (assimp v3.1.187496374)

mtllib FinalRoomWall.obj.mtl

# 116 vertex positions
v  -0.541421 0.1 0.075
v  -1.85858 0.5 0.075
v  -1.45858 0.1 0.075
v  -0.141421 0.5 0.075
v  -0.541421 0.9 0.075
v  -1.45858 0.9 0.075
v  -1.45858 0.9 0.025
v  -0.541421 0.9 0.025
v  -1.85858 0.5 0.025
v  -1.45858 0.1 0.025
v  -0.541421 0.1 0.025
v  -0.141421 0.5 0.025
v  -0.820711 1.17929 0.075
v  -1.25858 1.1 0.075
v  -0.741421 1.1 0.075
v  -1 1.35858 0.075
v  -0.741421 1.1 0.025
v  -0.820711 1.17929 0.025
v  -1 1.35858 0.025
v  -1.25858 1.1 0.025
v  -0.820711 -0.179289 0.075
v  -1.25858 -0.1 0.075
v  -1 -0.358579 0.075
v  -0.741421 -0.1 0.075
v  -1.25858 -0.1 0.025
v  -0.741421 -0.1 0.025
v  -1 -0.358579 0.025
v  -0.820711 -0.179289 0.025
v  0.695982 1.3374 0.075
v  -0.695982 1.3374 0.075
v  -7.8959e-17 1.10541 0.075
v  -0.758579 1.4 0.075
v  0.758579 1.4 0.075
v  0.695982 1.3374 0.025
v  -7.8959e-17 1.10541 0.025
v  0.758579 1.4 0.025
v  -0.758579 1.4 0.025
v  -0.695982 1.3374 0.025
v  0.758579 -0.4 0.075
v  -0.695982 -0.337403 0.075
v  -0.758579 -0.4 0.075
v  0.695982 -0.337403 0.075
v  7.8959e-17 -0.105409 0.075
v  -0.695982 -0.337403 0.025
v  7.8959e-17 -0.105409 0.025
v  -0.758579 -0.4 0.025
v  0.758579 -0.4 0.025
v  0.695982 -0.337403 0.025
v  1.25858 -0.1 0.075
v  0.820711 -0.179289 0.075
v  1 -0.358579 0.075
v  0.741421 -0.1 0.075
v  0.820711 -0.179289 0.025
v  0.741421 -0.1 0.025
v  1 -0.358579 0.025
v  1.25858 -0.1 0.025
v  1.45858 0.1 0.075
v  0.141421 0.5 0.075
v  0.541421 0.1 0.075
v  1.85858 0.5 0.075
v  1.45858 0.9 0.075
v  0.541421 0.9 0.075
v  0.541421 0.1 0.025
v  0.141421 0.5 0.025
v  1.45858 0.1 0.025
v  1.85858 0.5 0.025
v  1.45858 0.9 0.025
v  0.541421 0.9 0.025
v  1 1.35858 0.075
v  0.741421 1.1 0.075
v  1.25858 1.1 0.075
v  0.820711 1.17929 0.075
v  1.25858 1.1 0.025
v  1 1.35858 0.025
v  0.820711 1.17929 0.025
v  0.741421 1.1 0.025
v  -1.57071 1.07071 0.075
v  -1.9 1.4 0.075
v  -1.9 0.741421 0.075
v  -1.24142 1.4 0.075
v  -1.9 1.4 0.025
v  -1.9 0.741421 0.025
v  -1.57071 1.07071 0.025
v  -1.24142 1.4 0.025
v  -1.9 -0.4 0.075
v  -1.57071 -0.0707107 0.075
v  -1.9 0.258579 0.075
v  -1.24142 -0.4 0.075
v  -1.24142 -0.4 0.025
v  -1.9 -0.4 0.025
v  -1.57071 -0.0707107 0.025
v  -1.9 0.258579 0.025
v  1.9 -0.4 0.075
v  1.57071 -0.0707107 0.075
v  1.24142 -0.4 0.075
v  1.9 0.258579 0.075
v  1.9 -0.4 0.025
v  1.9 0.258579 0.025
v  1.57071 -0.0707107 0.025
v  1.24142 -0.4 0.025
v  1.9 1.4 0.075
v  1.57071 1.07071 0.075
v  1.9 0.741421 0.075
v  1.24142 1.4 0.075
v  1.24142 1.4 0.025
v  1.9 1.4 0.025
v  1.57071 1.07071 0.025
v  1.9 0.741421 0.025
v  2 -0.5 -0.025
v  -2 -0.5 0.025
v  -2 -0.5 -0.025
v  2 -0.5 0.025
v  -2 1.5 0.025
v  2 1.5 0.025
v  -2 1.5 -0.025
v  2 1.5 -0.025

# 0 UV coordinates

# 32 vertex normals
vn 2.65592e-20 6.08754e-36 0.0254
vn 0 0.0254 -6.08754e-36
vn -0.0179605 0.0179605 1.87802e-20
vn -0.0179605 -0.0179605 1.87802e-20
vn 3.12388e-19 -0.0254 5.7609e-36
vn 0.0179605 -0.0179605 -1.87802e-20
vn 0.0179605 0.0179605 -1.87802e-20
vn 0 0 0.0254
vn 0.0179605 0.0179605 0
vn -0.0179605 0.0179605 0
vn 0 -0.0254 0
vn -1.10801e-18 0.0254 0
vn -0.0179605 -0.0179605 0
vn 0.0179605 -0.0179605 0
vn 0.00803219 -0.0240966 0
vn 0 0.0254 0
vn -0.00803219 -0.0240966 0
vn -0.00803219 0.0240966 0
vn 7.55383e-19 -0.0254 0
vn 0.00803219 0.0240966 0
vn 3.12388e-19 -0.0254 0
vn 1.26887e-19 -1.81267e-20 0.0254
vn -0.0254 -0 1.26887e-19
vn 0.0179605 -0.0179605 -1.0254e-19
vn 7.76167e-38 0.0254 1.81267e-20
vn 1.26887e-19 1.81267e-20 0.0254
vn 1.74016e-18 -0.0254 1.81267e-20
vn 0.0179605 0.0179605 -1.0254e-19
vn 0.0254 0 0
vn 1.86231e-20 2.86509e-21 0.0254
vn -0.0254 -0 0
vn 1.79068e-20 0 -0.0254

# Mesh 'SketchUp' with 228 faces
g SketchUp
usemtl ID4
f  1//1 2//1 3//1
f  2//1 1//1 4//1
f  2//1 4//1 5//1
f  2//1 5//1 6//1
f  5//2 7//2 6//2
f  7//2 5//2 8//2
f  6//3 9//3 2//3
f  9//3 6//3 7//3
f  10//4 2//4 9//4
f  2//4 10//4 3//4
f  11//5 3//5 10//5
f  3//5 11//5 1//5
f  11//6 4//6 1//6
f  4//6 11//6 12//6
f  4//7 8//7 5//7
f  8//7 4//7 12//7
f  13//8 14//8 15//8
f  14//8 13//8 16//8
f  17//9 13//9 15//9
f  13//9 17//9 18//9
f  18//9 16//9 13//9
f  16//9 18//9 19//9
f  16//10 20//10 14//10
f  20//10 16//10 19//10
f  17//11 14//11 20//11
f  14//11 17//11 15//11
f  21//8 22//8 23//8
f  22//8 21//8 24//8
f  24//12 25//12 22//12
f  25//12 24//12 26//12
f  27//13 22//13 25//13
f  22//13 27//13 23//13
f  27//14 21//14 23//14
f  21//14 27//14 28//14
f  26//14 21//14 28//14
f  21//14 26//14 24//14
f  29//8 30//8 31//8
f  30//8 29//8 32//8
f  32//8 29//8 33//8
f  34//15 31//15 35//15
f  31//15 34//15 29//15
f  36//14 29//14 34//14
f  29//14 36//14 33//14
f  33//16 37//16 32//16
f  37//16 33//16 36//16
f  38//13 32//13 37//13
f  32//13 38//13 30//13
f  35//17 30//17 38//17
f  30//17 35//17 31//17
f  39//8 40//8 41//8
f  40//8 39//8 42//8
f  40//8 42//8 43//8
f  43//18 44//18 40//18
f  44//18 43//18 45//18
f  44//10 41//10 40//10
f  41//10 44//10 46//10
f  47//19 41//19 46//19
f  41//19 47//19 39//19
f  39//9 48//9 42//9
f  48//9 39//9 47//9
f  42//20 45//20 43//20
f  45//20 42//20 48//20
f  49//8 50//8 51//8
f  50//8 49//8 52//8
f  53//13 52//13 54//13
f  52//13 53//13 50//13
f  53//13 51//13 50//13
f  51//13 53//13 55//13
f  56//14 51//14 55//14
f  51//14 56//14 49//14
f  49//12 54//12 52//12
f  54//12 49//12 56//12
f  57//8 58//8 59//8
f  58//8 57//8 60//8
f  58//8 60//8 61//8
f  58//8 61//8 62//8
f  63//13 58//13 64//13
f  58//13 63//13 59//13
f  65//21 59//21 63//21
f  59//21 65//21 57//21
f  65//14 60//14 57//14
f  60//14 65//14 66//14
f  60//9 67//9 61//9
f  67//9 60//9 66//9
f  61//16 68//16 62//16
f  68//16 61//16 67//16
f  68//10 58//10 62//10
f  58//10 68//10 64//10
f  69//8 70//8 71//8
f  70//8 69//8 72//8
f  73//9 69//9 71//9
f  69//9 73//9 74//9
f  74//10 72//10 69//10
f  72//10 74//10 75//10
f  75//10 70//10 72//10
f  70//10 75//10 76//10
f  73//11 70//11 76//11
f  70//11 73//11 71//11
f  77//22 78//22 79//22
f  78//22 77//22 80//22
f  81//23 79//23 78//23
f  79//23 81//23 82//23
f  82//24 77//24 79//24
f  77//24 82//24 83//24
f  84//24 77//24 83//24
f  77//24 84//24 80//24
f  80//25 81//25 78//25
f  81//25 80//25 84//25
f  85//26 86//26 87//26
f  86//26 85//26 88//26
f  89//27 85//27 90//27
f  85//27 89//27 88//27
f  88//28 91//28 86//28
f  91//28 88//28 89//28
f  92//28 86//28 91//28
f  86//28 92//28 87//28
f  92//23 85//23 87//23
f  85//23 92//23 90//23
f  93//8 94//8 95//8
f  94//8 93//8 96//8
f  97//29 96//29 93//29
f  96//29 97//29 98//29
f  96//10 99//10 94//10
f  99//10 96//10 98//10
f  100//10 94//10 99//10
f  94//10 100//10 95//10
f  97//11 95//11 100//11
f  95//11 97//11 93//11
f  101//8 102//8 103//8
f  102//8 101//8 104//8
f  101//16 105//16 104//16
f  105//16 101//16 106//16
f  105//13 102//13 104//13
f  102//13 105//13 107//13
f  107//13 103//13 102//13
f  103//13 107//13 108//13
f  108//29 101//29 103//29
f  101//29 108//29 106//29
f  109//11 110//11 111//11
f  110//11 109//11 112//11
f  7//30 82//30 9//30
f  82//30 7//30 83//30
f  83//30 7//30 107//30
f  8//30 107//30 7//30
f  113//30 92//30 82//30
f  82//30 92//30 9//30
f  113//30 82//30 81//30
f  92//30 10//30 9//30
f  113//30 90//30 92//30
f  91//30 10//30 92//30
f  110//30 90//30 113//30
f  113//30 81//30 114//30
f  84//30 114//30 81//30
f  37//30 114//30 84//30
f  83//30 20//30 84//30
f  84//30 20//30 19//30
f  84//30 19//30 37//30
f  19//30 38//30 37//30
f  36//30 114//30 37//30
f  18//30 38//30 19//30
f  18//30 35//30 38//30
f  35//30 18//30 17//30
f  76//30 35//30 17//30
f  35//30 76//30 75//30
f  35//30 75//30 34//30
f  20//30 76//30 17//30
f  20//30 73//30 76//30
f  83//30 107//30 73//30
f  73//30 107//30 105//30
f  73//30 105//30 74//30
f  20//30 83//30 73//30
f  67//30 108//30 107//30
f  67//30 107//30 68//30
f  68//30 107//30 8//30
f  108//30 67//30 66//30
f  98//30 114//30 108//30
f  98//30 108//30 66//30
f  108//30 114//30 106//30
f  65//30 98//30 66//30
f  97//30 114//30 98//30
f  65//30 99//30 98//30
f  97//30 112//30 114//30
f  106//30 114//30 105//30
f  105//30 114//30 36//30
f  112//30 97//30 110//30
f  90//30 110//30 97//30
f  90//30 97//30 100//30
f  90//30 100//30 46//30
f  46//30 89//30 90//30
f  100//30 47//30 46//30
f  47//30 100//30 55//30
f  55//30 100//30 99//30
f  89//30 46//30 44//30
f  27//30 91//30 89//30
f  89//30 44//30 27//30
f  27//30 44//30 28//30
f  28//30 44//30 45//30
f  91//30 27//30 25//30
f  91//30 25//30 26//30
f  91//30 26//30 99//30
f  56//30 99//30 26//30
f  28//30 45//30 26//30
f  26//30 45//30 54//30
f  26//30 54//30 56//30
f  48//30 53//30 45//30
f  45//30 53//30 54//30
f  55//30 48//30 47//30
f  48//30 55//30 53//30
f  55//30 99//30 56//30
f  91//30 99//30 65//30
f  91//30 65//30 63//30
f  10//30 91//30 63//30
f  63//30 11//30 10//30
f  11//30 63//30 64//30
f  11//30 64//30 12//30
f  12//30 64//30 68//30
f  12//30 68//30 8//30
f  34//30 74//30 36//30
f  36//30 74//30 105//30
f  34//30 75//30 74//30
f  115//31 110//31 113//31
f  110//31 115//31 111//31
f  115//32 109//32 111//32
f  109//32 115//32 116//32
f  109//29 114//29 112//29
f  114//29 109//29 116//29
f  114//16 115//16 113//16
f  115//16 114//16 116//16

