# File produced by Open Asset Import Library (http://www.assimp.sf.net)
# (assimp v3.1.187496374)

mtllib FinalRoomFloor.obj.mtl

# 64 vertex positions
v  0.9 0.025 0.241421
v  0.241421 0 0.9
v  0.9 0 0.241421
v  0.241421 0.025 0.9
v  0.9 0 0.9
v  0.9 0.025 0.9
v  0.241421 0.05 0.9
v  0.9 0.05 0.241421
v  0.9 0.05 0.9
v  0.9 0.025 -0.9
v  0.9 0 -0.241421
v  0.9 0.025 -0.241421
v  0.9 0 -0.9
v  0.241421 0 -0.9
v  0.241421 0.025 -0.9
v  0.9 0.05 -0.241421
v  0.9 0.05 -0.9
v  0.241421 0.05 -0.9
v  -0.9 0 0.241421
v  -0.9 0.025 0.9
v  -0.9 0 0.9
v  -0.9 0.025 0.241421
v  -0.241421 0.025 0.9
v  -0.241421 0 0.9
v  -0.9 0.05 0.241421
v  -0.9 0.05 0.9
v  -0.241421 0.05 0.9
v  -0.717157 0.025 2.93277e-16
v  -1.01519e-15 0 0.717157
v  -0.717157 0 2.93277e-16
v  -1.01519e-15 0.025 0.717157
v  -1.15055e-15 0 -0.717157
v  -1.15055e-15 0.025 -0.717157
v  -1.01519e-15 0.05 0.717157
v  -0.717157 0.05 2.93277e-16
v  0.717157 0.025 2.25597e-17
v  0.717157 0 2.25597e-17
v  -1.15055e-15 0.05 -0.717157
v  0.717157 0.05 2.25597e-17
v  -0.434315 0.05 1.80478e-16
v  -1.08287e-15 0.05 0.434315
v  0.434315 0.05 0
v  -1.10543e-15 0.05 -0.434315
v  -0.241421 0.025 -0.9
v  -0.9 0 -0.9
v  -0.241421 0 -0.9
v  -0.9 0.025 -0.9
v  -0.9 0.025 -0.241421
v  -0.9 0 -0.241421
v  -0.9 0.05 -0.9
v  -0.241421 0.05 -0.9
v  -0.9 0.05 -0.241421
v  -1.08287e-15 0.025 0.434315
v  -1.10543e-15 0.025 -0.434315
v  -0.434315 0.025 1.80478e-16
v  0.434315 0.025 0
v  -1 0 1
v  -1 0 -1
v  1 0 -1
v  1 0 1
v  1 0.025 1
v  -1 0.025 1
v  -1 0.025 -1
v  1 0.025 -1

# 0 UV coordinates

# 17 vertex normals
vn 0.0179605 0 0.0179605
vn -0.0254 0 0
vn -0.0179605 0 -0.0179605
vn 0 0 -0.0254
vn 0.0254 0 0
vn 0 0 0.0254
vn 0 0.0254 0
vn 0.0179605 0 -0.0179605
vn 1.39213e-17 0 0.0254
vn -0.0179605 0 0.0179605
vn -1.39213e-17 0 -0.0254
vn 0.0254 0 -1.39213e-17
vn -0.0254 0 1.39213e-17
vn 0.0254 0 -2.0882e-17
vn -0.0254 0 2.0882e-17
vn 0 -0.0254 0
vn -0.0254 -0 9.16827e-18

# Mesh 'SketchUp' with 150 faces
g SketchUp
usemtl ID4
f  1//1 2//1 3//1
f  2//1 1//1 4//1
f  1//2 5//2 6//2
f  5//2 1//2 3//2
f  7//3 1//3 4//3
f  1//3 7//3 8//3
f  4//4 5//4 2//4
f  5//4 4//4 6//4
f  1//5 9//5 6//5
f  9//5 1//5 8//5
f  9//6 4//6 6//6
f  4//6 9//6 7//6
f  8//7 7//7 9//7
f  10//2 11//2 12//2
f  11//2 10//2 13//2
f  14//8 12//8 11//8
f  12//8 14//8 15//8
f  10//5 16//5 12//5
f  16//5 10//5 17//5
f  10//9 14//9 13//9
f  14//9 10//9 15//9
f  18//10 12//10 16//10
f  12//10 18//10 15//10
f  18//11 10//11 15//11
f  10//11 18//11 17//11
f  17//7 18//7 16//7
f  19//12 20//12 21//12
f  20//12 19//12 22//12
f  23//10 19//10 24//10
f  19//10 23//10 22//10
f  25//13 20//13 26//13
f  20//13 25//13 22//13
f  20//4 24//4 21//4
f  24//4 20//4 23//4
f  25//8 23//8 22//8
f  23//8 25//8 27//8
f  27//6 20//6 23//6
f  20//6 27//6 26//6
f  27//7 25//7 26//7
f  28//8 29//8 30//8
f  29//8 28//8 31//8
f  32//1 28//1 30//1
f  28//1 32//1 33//1
f  34//10 28//10 31//10
f  28//10 34//10 35//10
f  36//3 29//3 31//3
f  29//3 36//3 37//3
f  36//10 32//10 37//10
f  32//10 36//10 33//10
f  38//3 28//3 35//3
f  28//3 38//3 33//3
f  36//1 34//1 31//1
f  34//1 36//1 39//1
f  34//7 40//7 35//7
f  40//7 34//7 41//7
f  41//7 34//7 42//7
f  42//7 34//7 39//7
f  40//7 38//7 35//7
f  38//7 40//7 43//7
f  38//7 43//7 39//7
f  39//7 43//7 42//7
f  38//8 36//8 33//8
f  36//8 38//8 39//8
f  44//6 45//6 46//6
f  45//6 44//6 47//6
f  48//3 46//3 49//3
f  46//3 48//3 44//3
f  50//4 44//4 47//4
f  44//4 50//4 51//4
f  45//14 48//14 49//14
f  48//14 45//14 47//14
f  51//1 48//1 44//1
f  48//1 51//1 52//1
f  50//15 48//15 52//15
f  48//15 50//15 47//15
f  51//7 50//7 52//7
f  53//7 54//7 55//7
f  54//7 53//7 56//7
f  40//8 53//8 55//8
f  53//8 40//8 41//8
f  42//3 53//3 41//3
f  53//3 42//3 56//3
f  43//10 56//10 42//10
f  56//10 43//10 54//10
f  54//1 40//1 55//1
f  40//1 54//1 43//1
f  49//16 19//16 45//16
f  19//16 49//16 24//16
f  24//16 49//16 30//16
f  46//16 30//16 49//16
f  21//16 57//16 19//16
f  19//16 57//16 45//16
f  58//16 45//16 57//16
f  45//16 58//16 59//16
f  45//16 59//16 46//16
f  30//16 46//16 32//16
f  46//16 59//16 14//16
f  46//16 14//16 32//16
f  24//16 30//16 29//16
f  2//16 24//16 29//16
f  37//16 2//16 29//16
f  60//16 24//16 2//16
f  60//16 2//16 5//16
f  2//16 37//16 3//16
f  14//16 37//16 32//16
f  37//16 14//16 11//16
f  3//16 37//16 11//16
f  14//16 59//16 13//16
f  13//16 59//16 11//16
f  11//16 59//16 3//16
f  3//16 59//16 5//16
f  60//16 5//16 59//16
f  57//16 21//16 60//16
f  60//16 21//16 24//16
f  61//6 57//6 60//6
f  57//6 61//6 62//6
f  63//17 57//17 62//17
f  57//17 63//17 58//17
f  63//4 59//4 58//4
f  59//4 63//4 64//4
f  59//5 61//5 60//5
f  61//5 59//5 64//5
f  28//7 44//7 48//7
f  44//7 28//7 33//7
f  48//7 23//7 28//7
f  28//7 23//7 31//7
f  64//7 47//7 44//7
f  64//7 44//7 15//7
f  15//7 44//7 33//7
f  36//7 15//7 33//7
f  64//7 15//7 10//7
f  15//7 36//7 12//7
f  63//7 47//7 64//7
f  64//7 10//7 61//7
f  12//7 61//7 10//7
f  1//7 61//7 12//7
f  12//7 36//7 1//7
f  4//7 36//7 31//7
f  36//7 4//7 1//7
f  6//7 61//7 1//7
f  20//7 62//7 61//7
f  20//7 61//7 23//7
f  23//7 61//7 4//7
f  4//7 61//7 6//7
f  23//7 4//7 31//7
f  48//7 22//7 23//7
f  22//7 48//7 47//7
f  62//7 22//7 47//7
f  22//7 62//7 20//7
f  47//7 63//7 62//7

