# File produced by Open Asset Import Library (http://www.assimp.sf.net)
# (assimp v3.1.187496374)

mtllib HexTileSimpleShaded.obj.mtl

# 12 vertex positions
v  -0.525 -0.525 0
v  -0.2625 0.525 0.454663
v  -0.2625 -0.525 0.454663
v  -0.525 0.525 0
v  -0.2625 0.525 -0.454663
v  0.2625 0.525 -0.454663
v  0.2625 0.525 0.454663
v  0.525 0.525 0
v  0.2625 -0.525 0.454663
v  -0.2625 -0.525 -0.454663
v  0.2625 -0.525 -0.454663
v  0.525 -0.525 0

# 0 UV coordinates

# 8 vertex normals
vn 0.021997 0 -0.0127
vn -0 -0.0254 0
vn 0 0 -0.0254
vn 0 0.0254 0
vn 0.021997 0 0.0127
vn 0 0 0.0254
vn -0.021997 -0 0.0127
vn -0.021997 0 -0.0127

# Mesh 'SketchUp_ID2' with 20 faces
g SketchUp_ID2
usemtl ID4
f  1//1 2//1 3//1
f  2//1 1//1 4//1
f  5//2 2//2 4//2
f  2//2 5//2 6//2
f  2//2 6//2 7//2
f  7//2 6//2 8//2
f  2//3 9//3 3//3
f  9//3 2//3 7//3
f  3//4 10//4 1//4
f  10//4 3//4 9//4
f  10//4 9//4 11//4
f  11//4 9//4 12//4
f  10//5 4//5 1//5
f  4//5 10//5 5//5
f  6//6 10//6 11//6
f  10//6 6//6 5//6
f  6//7 12//7 8//7
f  12//7 6//7 11//7
f  8//8 9//8 7//8
f  9//8 8//8 12//8

