# File produced by Open Asset Import Library (http://www.assimp.sf.net)
# (assimp v3.1.187496374)

mtllib Key.obj.mtl

# 285 vertex positions
v  0.152802 0.2 0.117994
v  0.0991181 0 0.171678
v  0.0991181 0.2 0.171678
v  0.152802 0 0.117994
v  0.171678 0.2 0.0991181
v  1.80478e-16 0.2 0.198236
v  1.80478e-16 0 0.198236
v  0.171678 0 0.0991181
v  0.177879 0.2 0.0759747
v  0.177879 0 0.0759747
v  0.198236 0.2 -1.40998e-17
v  0.198236 0 -1.40998e-17
v  0.177879 0.2 -0.0759747
v  0.177879 0 -0.0759747
v  0.171678 0.2 -0.0991181
v  0.171678 0 -0.0991181
v  0.152802 0 -0.117994
v  0.152802 0.2 -0.117994
v  0.0991181 0.2 -0.171678
v  0.0991181 0 -0.171678
v  1.40998e-17 0 -0.198236
v  1.40998e-17 0.2 -0.198236
v  -0.0991181 0.2 0.171678
v  -0.0991181 0 0.171678
v  -0.152802 0.2 0.117994
v  -0.152802 0 0.117994
v  -0.171678 0.2 0.0991181
v  -0.171678 0 0.0991181
v  -0.177879 0 0.0759747
v  -0.177879 0.2 0.0759747
v  -0.198236 0 3.94795e-17
v  -0.198236 0.2 3.94795e-17
v  -0.177879 0 -0.0759747
v  -0.177879 0.2 -0.0759747
v  -0.171678 0 -0.0991181
v  -0.171678 0.2 -0.0991181
v  -0.152802 0.2 -0.117994
v  -0.152802 0 -0.117994
v  -0.0991181 0.2 -0.171678
v  -0.0991181 0 -0.171678
v  -0.3 0.2 -1.24042e-16
v  -0.340192 0 0.15
v  -0.340192 0.2 0.15
v  -0.3 0 -1.24042e-16
v  -0.340192 0.2 -0.15
v  -0.45 0 0.259808
v  -0.45 0.2 0.259808
v  -0.6 0.2 0.3
v  -0.6 0 0.3
v  -0.75 0.2 0.259808
v  -0.75 0 0.259808
v  -0.859807 0 0.15
v  -0.859807 0.2 0.15
v  -0.9 0 4.59243e-17
v  -0.9 0.2 4.59243e-17
v  -0.859807 0 -0.15
v  -0.859807 0.2 -0.15
v  -0.75 0.2 -0.259808
v  -0.75 0 -0.259808
v  -0.6 0.2 -0.3
v  -0.6 0 -0.3
v  -0.45 0.2 -0.259808
v  -0.45 0 -0.259808
v  -0.340192 0 -0.15
v  0.188157 0.2 0.153349
v  0.259808 0 0.225
v  0.259808 0.2 0.225
v  0.188157 0 0.153349
v  0.3 0 0.375
v  0.3 0.2 0.375
v  0.259808 0 0.525
v  0.259808 0.2 0.525
v  0.15 0.2 0.634808
v  0.15 0 0.634808
v  2.12458e-17 0.2 0.675
v  2.12458e-17 0 0.675
v  -0.15 0.2 0.634808
v  -0.15 0 0.634808
v  -0.259808 0.2 0.525
v  -0.259808 0 0.525
v  -0.3 0 0.375
v  -0.3 0.2 0.375
v  -0.259808 0 0.225
v  -0.259808 0.2 0.225
v  -0.188157 0 0.153349
v  -0.188157 0.2 0.153349
v  0.125 0.2 0.216506
v  0.125 0 0.216506
v  1.41638e-16 0 0.25
v  1.41638e-16 0.2 0.25
v  -0.125 0 0.216506
v  -0.125 0.2 0.216506
v  0.125 0.2 -0.216506
v  0.188157 0 -0.153349
v  0.125 0 -0.216506
v  0.188157 0.2 -0.153349
v  0 0.2 -0.25
v  0 0 -0.25
v  -0.125 0.2 -0.216506
v  -0.125 0 -0.216506
v  -0.188157 0.2 -0.153349
v  -0.188157 0 -0.153349
v  0.259808 0 -0.225
v  0.259808 0.2 -0.225
v  0.3 0.2 -0.375
v  0.3 0 -0.375
v  0.259808 0.2 -0.525
v  0.259808 0 -0.525
v  0.15 0.2 -0.634808
v  0.15 0 -0.634808
v  0 0 -0.675
v  0 0.2 -0.675
v  -0.15 0 -0.634808
v  -0.15 0.2 -0.634808
v  -0.259808 0.2 -0.525
v  -0.259808 0 -0.525
v  -0.3 0.2 -0.375
v  -0.3 0 -0.375
v  -0.259808 0.2 -0.225
v  -0.259808 0 -0.225
v  0.276471 0 0.0754389
v  0.332195 0.2 0.131163
v  0.332195 0 0.131163
v  0.276471 0.2 0.0754389
v  0.296684 0 1.19849e-16
v  0.296684 0.2 1.19849e-16
v  0.276471 0 -0.0754389
v  0.276471 0.2 -0.0754389
v  0.559712 0 5.63993e-18
v  0.559712 0.2 5.63993e-18
v  0.332195 0 -0.131163
v  0.332195 0.2 -0.131163
v  2.44082 0.125 -0.45
v  2.42207 0.1 -0.375
v  2.42207 0.125 -0.375
v  2.44082 0.1 -0.45
v  2.42207 0.075 -0.375
v  2.44082 0.075 -0.45
v  2.35409 0.125 -0.35
v  2.35409 0.1 -0.35
v  2.35409 0.075 -0.35
v  2.16889 0.1 -0.45
v  2.16889 0.125 -0.45
v  2.16889 0.075 -0.45
v  2.35409 0.1 -0.25
v  2.35409 0.125 -0.25
v  2.35409 0.075 -0.25
v  2.18764 0.125 -0.375
v  2.18764 0.1 -0.375
v  2.18764 0.075 -0.375
v  2.42207 0.125 -0.225
v  2.42207 0.1 -0.225
v  2.42207 0.075 -0.225
v  2.25563 0.1 -0.35
v  2.25563 0.125 -0.35
v  2.25563 0.075 -0.35
v  2.44082 0.1 -0.15
v  2.44082 0.125 -0.15
v  2.44082 0.075 -0.15
v  2.25563 0.125 -0.25
v  2.25563 0.1 -0.25
v  2.25563 0.075 -0.25
v  2.16889 0.125 -0.15
v  2.16889 0.1 -0.15
v  2.16889 0.075 -0.15
v  2.18764 0.1 -0.225
v  2.18764 0.125 -0.225
v  2.18764 0.075 -0.225
v  0.375 0 -0.375
v  0.32476 0.2 -0.1875
v  0.32476 0 -0.1875
v  0.375 0.2 -0.375
v  0.32476 0 -0.5625
v  0.32476 0.2 -0.5625
v  0.1875 0.2 -0.69976
v  0.1875 0 -0.69976
v  0 0.2 -0.75
v  0 0 -0.75
v  -0.1875 0.2 -0.69976
v  -0.1875 0 -0.69976
v  -0.32476 0 -0.5625
v  -0.32476 0.2 -0.5625
v  -0.375 0 -0.375
v  -0.375 0.2 -0.375
v  -0.330385 0 -0.208494
v  -0.330385 0.2 -0.208494
v  -0.903109 0 -0.175
v  -0.775 0 -0.303109
v  -0.903109 0 0.175
v  -0.95 0 -1.5237e-16
v  -0.6 0 -0.35
v  -0.425 0 -0.303109
v  -0.32476 0 0.5625
v  -0.330385 0 0.208494
v  -0.1875 0 0.69976
v  -0.375 0 0.375
v  0 0 0.75
v  0.1875 0 0.69976
v  0.32476 0 0.5625
v  0.32476 0 0.1875
v  0.375 0 0.375
v  0.604856 0 0.0260253
v  0.604856 0 -0.0260253
v  0.604856 1.12799e-17 -3.97356e-17
v  -0.425 0 0.303109
v  -0.6 0 0.35
v  -0.775 0 0.303109
v  -0.903109 0.2 0.175
v  -0.903109 0.2 -0.175
v  -0.95 0.2 -1.5237e-16
v  -0.775 0.2 0.303109
v  -0.775 0.2 -0.303109
v  -0.6 0.2 -0.35
v  -0.425 0.2 -0.303109
v  0.604856 0.2 -0.0260253
v  0.604856 0.2 0.0260253
v  0.604856 0.2 1.69198e-17
v  0.32476 0.2 0.1875
v  0.375 0.2 0.375
v  0.32476 0.2 0.5625
v  -0.330385 0.2 0.208494
v  -0.32476 0.2 0.5625
v  -0.1875 0.2 0.69976
v  -0.375 0.2 0.375
v  -0.425 0.2 0.303109
v  -0.6 0.2 0.35
v  0 0.2 0.75
v  0.1875 0.2 0.69976
v  0.604856 0.00697346 -0.0260253
v  0.604856 0.193027 -0.0260253
v  0.604856 0.00697346 0.0260253
v  0.604856 0.193027 0.0260253
v  0.604856 0.186603 -0.05
v  0.604856 0.0133975 -0.05
v  0.604856 0.15 -0.0866025
v  0.604856 0.05 -0.0866025
v  0.604856 0.1 -0.1
v  2.50486 0.00697346 -0.0260253
v  2.50486 0.193027 -0.0260253
v  0.804856 0.193027 -0.0260253
v  2.60486 0.00697346 -0.0260253
v  2.60486 0.193027 -0.0260253
v  2.60486 1.12799e-17 -3.97356e-17
v  2.50486 0.0133975 -0.05
v  2.50486 0.05 -0.0866025
v  2.50486 0.075 -0.0933013
v  2.10486 0.1 -0.1
v  2.50486 0.1 -0.1
v  2.50486 0.15 -0.0866025
v  2.50486 0.125 -0.0933013
v  2.50486 0.186603 -0.05
v  2.60486 0.2 1.69198e-17
v  2.50486 0.00697346 0.0260253
v  2.60486 0.00697346 0.0260253
v  0.604856 0.0133975 0.05
v  2.50486 0.0133975 0.05
v  0.604856 0.05 0.0866025
v  2.50486 0.05 0.0866025
v  2.50486 0.1 0.1
v  0.604856 0.1 0.1
v  2.50486 0.15 0.0866025
v  0.604856 0.15 0.0866025
v  0.604856 0.186603 0.05
v  2.50486 0.186603 0.05
v  0.804856 0.193027 0.0260253
v  2.50486 0.193027 0.0260253
v  2.60486 0.193027 0.0260253
v  2.50486 0.125 -0.1
v  2.50486 0.075 -0.1
v  2.10486 0.1 -0.5
v  2.15486 0.1 -0.3
v  2.50486 0.1 -0.5
v  2.45486 0.1 -0.3
v  2.10486 0.075 -0.1
v  2.10486 0.125 -0.1
v  2.10486 0.125 -0.0933013
v  2.15486 0.125 -0.3
v  2.45486 0.125 -0.3
v  2.10486 0.125 -0.5
v  2.50486 0.125 -0.5
v  2.45486 0.075 -0.3
v  2.15486 0.075 -0.3
v  2.10486 0.075 -0.5
v  2.50486 0.075 -0.5
v  2.10486 0.075 -0.0933013

# 0 UV coordinates

# 80 vertex normals
vn -0.0179605 0 -0.0179605
vn -0.0127 0 -0.021997
vn -0.021997 0 -0.0127
vn -0.006574 0 -0.0245345
vn -0.0245345 0 -0.006574
vn -0.0254 0 1.11515e-17
vn -0.0245345 -0 0.006574
vn -0.021997 0 0.0127
vn -0.0179605 -0 0.0179605
vn -0.0127 0 0.021997
vn -0.006574 -0 0.0245345
vn 0.0127 0 -0.021997
vn 0.006574 0 -0.0245345
vn 0.0179605 0 -0.0179605
vn 0.021997 0 -0.0127
vn 0.0245345 0 -0.006574
vn 0.0245345 0 0.006574
vn 0.021997 0 0.0127
vn 0.0179605 0 0.0179605
vn 0.0127 0 0.021997
vn 0.006574 0 0.0245345
vn -0.0254 0 1.16161e-17
vn -6.50502e-18 0 -0.0254
vn 0.0254 0 -1.39393e-18
vn -1.39393e-18 0 0.0254
vn -0.0254 0 -1.39393e-18
vn 1.301e-17 0 -0.0254
vn 0.0254 0 8.82823e-18
vn 1.81211e-17 0 0.0254
vn -2.32322e-18 0 -0.0254
vn -0.0254 0 -3.71715e-18
vn 6.04037e-18 0 0.0254
vn 0.0254 0 1.85858e-18
vn 0.0254 0 1.16161e-17
vn -0.0126859 0 -0.0220052
vn -0.0126859 -0 0.0220052
vn -0.0246416 0 -0.0061604
vn -0.00876687 0 -0.0238391
vn 0 0 0.0254
vn -0.0254 -0 0
vn 0.0246416 0 -0.0061604
vn -0.00876687 -0 0.0238391
vn 0.00876687 0 -0.0238391
vn -0.0246416 -0 0.0061604
vn 0.0254 0 0
vn 0 0 -0.0254
vn 0.00876687 0 0.0238391
vn 0.0246416 0 0.0061604
vn 0.0254 0 6.50502e-18
vn 2.32322e-18 0 -0.0254
vn -0.0254 0 -2.32322e-18
vn 3.19871e-20 -0.0254 -1.06276e-35
vn 6.39742e-20 0.0254 -1.24074e-35
vn 0.0126859 5.90234e-34 -0.0220052
vn 0.0126859 -3.72731e-19 0.0220052
vn 0.0254 0 7.89895e-18
vn -2.78786e-18 0 0.0254
vn -0.0254 0 -1.301e-17
vn -7.89895e-18 0 0.0254
vn -0.0254 0 -1.34747e-17
vn 0 7.69965e-19 -0.0254
vn 2.45801e-21 -0.0245345 -0.006574
vn 2.74996e-36 -0.021997 -0.0127
vn 0 -0.0127 -0.021997
vn 0 3.71715e-18 -0.0254
vn 0 -0.006574 -0.0245345
vn 0 0.0127 -0.021997
vn 0 -1.61408e-11 -0.0254
vn -1.33642e-35 0.021997 -0.0127
vn 0 0.006574 -0.0245345
vn 0 0.0245345 -0.006574
vn -2.45801e-21 -0.0245345 0.006574
vn 0 -0.021997 0.0127
vn 0 -0.0127 0.021997
vn 0 -5.57573e-18 0.0254
vn 0 0.0127 0.021997
vn -2.86473e-35 0.021997 0.0127
vn 7.37403e-21 0.0245345 0.006574
vn 0 -0.0254 0
vn 0 0.0254 0

# Mesh 'SketchUp' with 619 faces
g SketchUp
usemtl ID4
f  1//1 2//2 3//2
f  2//2 1//1 4//1
f  5//3 4//1 1//1
f  6//4 2//2 7//4
f  2//2 6//4 3//2
f  4//1 5//3 8//3
f  9//5 8//3 5//3
f  8//3 9//5 10//5
f  11//6 10//5 9//5
f  10//5 11//6 12//6
f  13//7 12//6 11//6
f  12//6 13//7 14//7
f  15//8 14//7 13//7
f  14//7 15//8 16//8
f  15//8 17//9 16//8
f  17//9 15//8 18//9
f  19//10 17//9 18//9
f  17//9 19//10 20//10
f  19//10 21//11 20//10
f  21//11 19//10 22//11
f  23//12 7//13 24//12
f  7//13 23//12 6//13
f  24//12 25//14 23//12
f  25//14 24//12 26//14
f  26//14 27//15 25//14
f  27//15 26//14 28//15
f  29//16 27//15 28//15
f  27//15 29//16 30//16
f  31//16 30//16 29//16
f  30//16 31//16 32//16
f  33//17 32//17 31//17
f  32//17 33//17 34//17
f  35//18 34//17 33//17
f  34//17 35//18 36//18
f  37//19 35//18 38//19
f  35//18 37//19 36//18
f  38//19 39//20 37//19
f  39//20 38//19 40//20
f  40//20 22//21 39//20
f  22//21 40//20 21//21
f  41//22 42//3 43//3
f  42//3 41//22 44//22
f  45//8 44//22 41//22
f  46//2 43//3 42//3
f  43//3 46//2 47//2
f  48//23 46//2 49//23
f  46//2 48//23 47//2
f  49//23 50//12 48//23
f  50//12 49//23 51//12
f  52//15 50//12 51//12
f  50//12 52//15 53//15
f  54//24 53//15 52//15
f  53//15 54//24 55//24
f  56//18 55//24 54//24
f  55//24 56//18 57//18
f  58//20 56//18 59//20
f  56//18 58//20 57//18
f  59//20 60//25 58//20
f  60//25 59//20 61//25
f  61//25 62//10 60//25
f  62//10 61//25 63//10
f  63//10 45//8 62//10
f  45//8 63//10 64//8
f  44//22 45//8 64//8
f  65//9 66//8 67//8
f  66//8 65//9 68//9
f  69//26 67//8 66//8
f  67//8 69//26 70//26
f  71//3 70//26 69//26
f  70//26 71//3 72//3
f  73//2 71//3 74//2
f  71//3 73//2 72//3
f  74//2 75//27 73//2
f  75//27 74//2 76//27
f  76//27 77//12 75//27
f  77//12 76//27 78//12
f  78//12 79//15 77//12
f  79//15 78//12 80//15
f  81//28 79//15 80//15
f  79//15 81//28 82//28
f  83//18 82//28 81//28
f  82//28 83//18 84//18
f  85//19 84//18 83//18
f  84//18 85//19 86//19
f  68//19 87//20 88//20
f  87//20 68//19 65//19
f  87//20 89//29 88//20
f  89//29 87//20 90//29
f  90//29 91//10 89//29
f  91//10 90//29 92//10
f  92//10 85//9 91//10
f  85//9 92//10 86//9
f  93//12 94//14 95//12
f  94//14 93//12 96//14
f  95//12 97//30 93//12
f  97//30 95//12 98//30
f  98//30 99//2 97//30
f  99//2 98//30 100//2
f  100//2 101//1 99//2
f  101//1 100//2 102//1
f  96//1 103//3 94//1
f  103//3 96//1 104//3
f  105//31 103//3 104//3
f  103//3 105//31 106//31
f  107//8 106//31 105//31
f  106//31 107//8 108//8
f  109//10 108//8 107//8
f  108//8 109//10 110//10
f  109//10 111//32 110//10
f  111//32 109//10 112//32
f  112//32 113//20 111//32
f  113//20 112//32 114//20
f  113//20 115//18 116//18
f  115//18 113//20 114//20
f  117//33 116//18 115//18
f  116//18 117//33 118//33
f  119//15 118//33 117//33
f  118//33 119//15 120//15
f  101//14 120//15 119//15
f  120//15 101//14 102//14
f  121//14 122//14 123//14
f  122//14 121//14 124//14
f  125//34 124//17 121//17
f  124//17 125//34 126//34
f  127//16 126//34 125//34
f  126//34 127//16 128//16
f  122//35 129//35 123//35
f  129//35 122//35 130//35
f  130//36 131//36 129//36
f  131//36 130//36 132//36
f  132//19 127//19 131//19
f  127//19 132//19 128//19
f  133//37 134//37 135//37
f  134//37 133//37 136//37
f  136//37 137//37 134//37
f  137//37 136//37 138//37
f  139//38 134//38 140//38
f  134//38 139//38 135//38
f  137//38 140//38 134//38
f  140//38 137//38 141//38
f  133//39 142//39 136//39
f  142//39 133//39 143//39
f  144//39 136//39 142//39
f  136//39 144//39 138//39
f  139//40 145//40 146//40
f  145//40 139//40 140//40
f  140//40 147//40 145//40
f  147//40 140//40 141//40
f  142//41 148//41 149//41
f  148//41 142//41 143//41
f  149//41 144//41 142//41
f  144//41 149//41 150//41
f  151//42 145//42 152//42
f  145//42 151//42 146//42
f  147//42 152//42 145//42
f  152//42 147//42 153//42
f  148//43 154//43 149//43
f  154//43 148//43 155//43
f  156//43 149//43 154//43
f  149//43 156//43 150//43
f  151//44 157//44 158//44
f  157//44 151//44 152//44
f  152//44 159//44 157//44
f  159//44 152//44 153//44
f  154//45 160//45 161//45
f  160//45 154//45 155//45
f  161//45 156//45 154//45
f  156//45 161//45 162//45
f  163//46 157//46 164//46
f  157//46 163//46 158//46
f  159//46 164//46 157//46
f  164//46 159//46 165//46
f  160//47 166//47 161//47
f  166//47 160//47 167//47
f  168//47 161//47 166//47
f  161//47 168//47 162//47
f  166//48 163//48 164//48
f  163//48 166//48 167//48
f  164//48 168//48 166//48
f  168//48 164//48 165//48
f  169//49 170//17 171//17
f  170//17 169//49 172//49
f  173//15 172//49 169//49
f  172//49 173//15 174//15
f  175//12 173//15 176//12
f  173//15 175//12 174//15
f  176//12 177//50 175//12
f  177//50 176//12 178//50
f  178//50 179//2 177//50
f  179//2 178//50 180//2
f  179//2 181//3 182//3
f  181//3 179//2 180//2
f  183//51 182//3 181//3
f  182//3 183//51 184//51
f  185//7 184//51 183//51
f  184//51 185//7 186//7
f  187//52 56//52 54//52
f  56//52 187//52 188//52
f  187//52 189//52 190//52
f  189//52 187//52 54//52
f  56//52 188//52 59//52
f  59//52 188//52 191//52
f  59//52 191//52 61//52
f  61//52 191//52 192//52
f  61//52 192//52 63//52
f  63//52 192//52 64//52
f  64//52 192//52 185//52
f  64//52 185//52 44//52
f  44//52 185//52 181//52
f  181//52 185//52 183//52
f  44//52 181//52 118//52
f  181//52 116//52 118//52
f  116//52 181//52 180//52
f  44//52 118//52 120//52
f  44//52 120//52 81//52
f  81//52 120//52 83//52
f  83//52 120//52 102//52
f  193//52 44//52 81//52
f  193//52 81//52 80//52
f  194//52 44//52 193//52
f  193//52 80//52 195//52
f  193//52 196//52 194//52
f  195//52 80//52 78//52
f  195//52 78//52 197//52
f  197//52 78//52 76//52
f  197//52 76//52 198//52
f  198//52 76//52 74//52
f  198//52 74//52 71//52
f  198//52 71//52 199//52
f  199//52 71//52 69//52
f  69//52 200//52 199//52
f  201//52 199//52 200//52
f  66//52 121//52 69//52
f  69//52 121//52 123//52
f  69//52 123//52 200//52
f  200//52 123//52 202//52
f  202//52 123//52 129//52
f  202//52 129//52 203//52
f  202//52 203//52 204//52
f  131//52 203//52 129//52
f  131//52 171//52 203//52
f  127//52 106//52 131//52
f  131//52 106//52 171//52
f  106//52 173//52 171//52
f  171//52 173//52 169//52
f  108//52 173//52 106//52
f  127//52 103//52 106//52
f  125//52 121//52 127//52
f  66//52 103//52 127//52
f  121//52 66//52 127//52
f  12//52 94//52 103//52
f  66//52 12//52 103//52
f  68//52 12//52 66//52
f  14//52 94//52 12//52
f  68//52 10//52 12//52
f  17//52 95//52 94//52
f  17//52 94//52 16//52
f  16//52 94//52 14//52
f  20//52 95//52 17//52
f  21//52 98//52 95//52
f  21//52 95//52 20//52
f  40//52 98//52 21//52
f  40//52 100//52 98//52
f  38//52 100//52 40//52
f  35//52 102//52 100//52
f  35//52 100//52 38//52
f  33//52 102//52 35//52
f  83//52 102//52 31//52
f  31//52 102//52 33//52
f  31//52 85//52 83//52
f  85//52 31//52 29//52
f  85//52 29//52 28//52
f  85//52 28//52 91//52
f  91//52 28//52 26//52
f  91//52 26//52 24//52
f  91//52 24//52 89//52
f  89//52 24//52 7//52
f  89//52 7//52 88//52
f  88//52 7//52 2//52
f  88//52 2//52 4//52
f  88//52 4//52 68//52
f  68//52 4//52 8//52
f  68//52 8//52 10//52
f  108//52 176//52 173//52
f  110//52 176//52 108//52
f  111//52 178//52 176//52
f  111//52 176//52 110//52
f  113//52 178//52 111//52
f  113//52 180//52 178//52
f  116//52 180//52 113//52
f  205//52 42//52 194//52
f  194//52 42//52 44//52
f  206//52 49//52 205//52
f  205//52 49//52 46//52
f  205//52 46//52 42//52
f  207//52 51//52 206//52
f  206//52 51//52 49//52
f  189//52 52//52 207//52
f  207//52 52//52 51//52
f  189//52 54//52 52//52
f  208//53 209//53 210//53
f  209//53 208//53 55//53
f  55//53 208//53 53//53
f  53//53 208//53 211//53
f  209//53 57//53 212//53
f  57//53 209//53 55//53
f  212//53 57//53 58//53
f  212//53 58//53 213//53
f  213//53 58//53 60//53
f  213//53 60//53 62//53
f  213//53 62//53 214//53
f  214//53 62//53 45//53
f  214//53 45//53 186//53
f  186//53 45//53 41//53
f  182//53 184//53 186//53
f  186//53 41//53 182//53
f  182//53 115//53 179//53
f  115//53 182//53 117//53
f  182//53 41//53 117//53
f  179//53 115//53 114//53
f  179//53 114//53 177//53
f  177//53 114//53 112//53
f  177//53 112//53 109//53
f  177//53 109//53 175//53
f  175//53 109//53 107//53
f  175//53 107//53 174//53
f  174//53 107//53 105//53
f  174//53 105//53 170//53
f  174//53 170//53 172//53
f  104//53 128//53 105//53
f  105//53 128//53 132//53
f  105//53 132//53 170//53
f  170//53 132//53 215//53
f  215//53 132//53 130//53
f  215//53 130//53 216//53
f  215//53 216//53 217//53
f  122//53 216//53 130//53
f  122//53 218//53 216//53
f  124//53 70//53 122//53
f  122//53 70//53 218//53
f  219//53 218//53 220//53
f  218//53 70//53 220//53
f  72//53 220//53 70//53
f  124//53 67//53 70//53
f  67//53 124//53 128//53
f  126//53 128//53 124//53
f  11//53 65//53 67//53
f  11//53 67//53 104//53
f  104//53 67//53 128//53
f  9//53 65//53 11//53
f  96//53 13//53 11//53
f  96//53 11//53 104//53
f  1//53 87//53 65//53
f  1//53 65//53 5//53
f  5//53 65//53 9//53
f  3//53 87//53 1//53
f  6//53 90//53 87//53
f  6//53 87//53 3//53
f  23//53 90//53 6//53
f  23//53 92//53 90//53
f  25//53 92//53 23//53
f  27//53 86//53 92//53
f  27//53 92//53 25//53
f  30//53 86//53 27//53
f  86//53 32//53 84//53
f  32//53 86//53 30//53
f  101//53 84//53 32//53
f  101//53 32//53 34//53
f  119//53 82//53 84//53
f  119//53 84//53 101//53
f  101//53 34//53 36//53
f  101//53 36//53 99//53
f  99//53 36//53 37//53
f  99//53 37//53 39//53
f  99//53 39//53 97//53
f  97//53 39//53 22//53
f  97//53 22//53 93//53
f  93//53 22//53 19//53
f  93//53 19//53 18//53
f  93//53 18//53 96//53
f  96//53 18//53 15//53
f  96//53 15//53 13//53
f  117//53 41//53 119//53
f  119//53 41//53 82//53
f  43//53 221//53 41//53
f  41//53 221//53 222//53
f  41//53 222//53 82//53
f  82//53 222//53 79//53
f  79//53 222//53 223//53
f  222//53 221//53 224//53
f  43//53 225//53 221//53
f  47//53 225//53 43//53
f  48//53 226//53 225//53
f  48//53 225//53 47//53
f  50//53 226//53 48//53
f  50//53 211//53 226//53
f  53//53 211//53 50//53
f  79//53 223//53 77//53
f  77//53 223//53 227//53
f  77//53 227//53 75//53
f  75//53 227//53 228//53
f  75//53 228//53 73//53
f  73//53 228//53 72//53
f  72//53 228//53 220//53
f  170//54 203//54 171//54
f  203//54 170//54 229//54
f  229//54 170//54 230//54
f  230//54 170//54 215//54
f  229//45 204//45 203//45
f  204//45 231//45 202//45
f  231//55 200//55 202//55
f  200//55 231//55 218//55
f  218//55 231//55 232//55
f  218//55 232//55 216//55
f  200//16 219//56 201//56
f  219//56 200//16 218//16
f  220//18 201//56 219//56
f  201//56 220//18 199//18
f  220//18 198//20 199//18
f  198//20 220//18 228//20
f  228//20 197//57 198//20
f  197//57 228//20 227//57
f  227//57 195//10 197//57
f  195//10 227//57 223//10
f  223//10 193//8 195//10
f  193//8 223//10 222//8
f  224//58 193//8 222//8
f  193//8 224//58 196//58
f  221//5 196//58 224//58
f  196//58 221//5 194//5
f  194//19 225//20 205//20
f  225//20 194//19 221//19
f  225//20 206//59 205//20
f  206//59 225//20 226//59
f  226//59 207//10 206//59
f  207//10 226//59 211//10
f  208//8 207//10 211//10
f  207//10 208//8 189//8
f  210//60 189//8 208//8
f  189//8 210//60 190//60
f  209//3 190//60 210//60
f  190//60 209//3 187//3
f  209//3 188//2 187//3
f  188//2 209//3 212//2
f  212//2 191//46 188//2
f  191//46 212//2 213//46
f  213//46 192//12 191//46
f  192//12 213//46 214//12
f  192//12 186//14 185//14
f  186//14 192//12 214//12
f  217//45 216//45 232//45
f  215//45 217//45 230//45
f  233//40 229//40 230//40
f  229//40 233//40 234//40
f  234//40 233//40 235//40
f  234//40 235//40 236//40
f  236//40 235//40 237//40
f  230//61 238//61 229//61
f  238//61 230//61 239//61
f  239//61 230//61 240//61
f  239//61 241//61 238//61
f  241//61 239//61 242//61
f  238//62 204//62 229//62
f  204//62 238//62 243//62
f  243//62 238//62 241//62
f  229//62 244//63 238//62
f  244//63 229//62 234//63
f  236//64 244//63 234//63
f  244//63 236//64 245//64
f  237//65 245//64 236//64
f  245//64 237//65 246//66
f  235//67 247//68 237//65
f  246//66 237//65 248//66
f  248//66 237//65 247//68
f  233//69 249//67 235//67
f  247//68 235//67 248//70
f  248//70 235//67 250//70
f  250//70 235//67 249//67
f  240//71 233//69 230//71
f  233//69 240//71 251//69
f  249//67 233//69 251//69
f  230//71 252//71 240//71
f  240//71 252//71 239//71
f  251//69 240//71 239//71
f  252//71 230//71 217//71
f  239//71 252//71 242//71
f  243//72 231//72 204//72
f  231//72 243//72 253//72
f  253//72 243//72 254//72
f  253//72 255//73 231//72
f  255//73 253//72 256//73
f  256//73 257//74 255//73
f  257//74 256//73 258//74
f  259//75 257//74 258//74
f  257//74 259//75 260//75
f  261//76 260//75 259//75
f  260//75 261//76 262//76
f  261//76 263//77 262//76
f  263//77 261//76 264//77
f  264//77 232//78 263//77
f  232//78 264//77 265//78
f  265//78 264//77 266//78
f  265//78 217//78 232//78
f  217//78 265//78 252//78
f  252//78 265//78 266//78
f  252//78 266//78 267//78
f  266//39 231//39 253//39
f  231//39 266//39 232//39
f  232//39 266//39 265//39
f  253//39 267//39 266//39
f  267//39 253//39 254//39
f  262//40 257//40 260//40
f  257//40 262//40 263//40
f  257//40 263//40 255//40
f  255//40 263//40 232//40
f  255//40 232//40 231//40
f  238//45 251//45 239//45
f  251//45 238//45 244//45
f  251//45 244//45 249//45
f  249//45 244//45 245//45
f  249//45 245//45 250//45
f  250//45 245//45 246//45
f  250//45 246//45 248//45
f  268//45 250//45 248//45
f  248//45 246//45 269//45
f  243//45 267//45 254//45
f  267//45 243//45 252//45
f  252//45 243//45 242//45
f  242//45 243//45 241//45
f  258//45 261//45 259//45
f  261//45 258//45 264//45
f  264//45 258//45 256//45
f  264//45 256//45 266//45
f  266//45 256//45 253//45
f  270//79 142//79 271//79
f  142//79 270//79 272//79
f  142//79 272//79 136//79
f  164//79 271//79 142//79
f  149//79 164//79 142//79
f  164//79 247//79 271//79
f  247//79 164//79 248//79
f  248//79 164//79 157//79
f  164//79 149//79 166//79
f  166//79 149//79 154//79
f  166//79 154//79 161//79
f  136//79 273//79 157//79
f  248//79 157//79 273//79
f  152//79 136//79 157//79
f  136//79 272//79 273//79
f  152//79 134//79 136//79
f  145//79 134//79 152//79
f  134//79 145//79 140//79
f  248//39 274//39 269//39
f  274//39 248//39 247//39
f  268//39 247//39 248//39
f  247//39 268//39 275//39
f  250//80 275//80 276//80
f  275//80 250//80 268//80
f  275//80 163//80 277//80
f  163//80 275//80 268//80
f  163//80 268//80 158//80
f  158//80 268//80 278//80
f  277//80 163//80 143//80
f  163//80 148//80 143//80
f  148//80 163//80 167//80
f  143//80 279//80 277//80
f  279//80 143//80 280//80
f  280//80 143//80 133//80
f  280//80 133//80 278//80
f  278//80 133//80 158//80
f  133//80 151//80 158//80
f  135//80 151//80 133//80
f  151//80 139//80 146//80
f  139//80 151//80 135//80
f  148//80 167//80 155//80
f  155//80 167//80 160//80
f  273//41 268//41 248//41
f  268//41 273//41 278//41
f  248//41 281//41 273//41
f  281//41 248//41 269//41
f  277//37 247//37 275//37
f  247//37 277//37 271//37
f  271//37 274//37 247//37
f  274//37 271//37 282//37
f  279//44 271//44 277//44
f  271//44 279//44 270//44
f  270//44 282//44 271//44
f  282//44 270//44 283//44
f  279//46 272//46 270//46
f  272//46 279//46 280//46
f  284//46 270//46 272//46
f  270//46 284//46 283//46
f  272//48 278//48 273//48
f  278//48 272//48 280//48
f  273//48 284//48 272//48
f  284//48 273//48 281//48
f  275//40 285//40 276//40
f  285//40 275//40 274//40
f  274//40 275//40 247//40
f  283//79 144//79 282//79
f  144//79 283//79 284//79
f  144//79 284//79 138//79
f  165//79 282//79 144//79
f  150//79 165//79 144//79
f  165//79 274//79 282//79
f  274//79 165//79 269//79
f  269//79 165//79 159//79
f  165//79 150//79 168//79
f  168//79 150//79 156//79
f  168//79 156//79 162//79
f  138//79 281//79 159//79
f  269//79 159//79 281//79
f  153//79 138//79 159//79
f  269//79 285//79 274//79
f  285//79 269//79 246//79
f  138//79 284//79 281//79
f  153//79 137//79 138//79
f  147//79 137//79 153//79
f  137//79 147//79 141//79

