# File produced by Open Asset Import Library (http://www.assimp.sf.net)
# (assimp v3.1.187496374)

mtllib KeyHoleBlackness.obj.mtl

# 13 vertex positions
v  -0.228482 0 0.631914
v  -0.228482 0 0.368086
v  -0.263829 0 0.5
v  -0.102671 0 0.242274
v  -0.131914 0 0.728482
v  -1.66378e-16 0 0.763829
v  0.241807 0 -0.774725
v  -0.241807 0 -0.774725
v  0.131914 0 0.728482
v  0.102671 0 0.242274
v  0.228482 0 0.368086
v  0.228482 0 0.631914
v  0.263829 0 0.5

# 0 UV coordinates

# 1 vertex normals
vn 0 0.0254 0

# Mesh 'SketchUp_ID2' with 11 faces
g SketchUp_ID2
usemtl ID4
f  1//1 2//1 3//1
f  2//1 1//1 4//1
f  4//1 1//1 5//1
f  4//1 5//1 6//1
f  4//1 7//1 8//1
f  7//1 4//1 6//1
f  9//1 10//1 6//1
f  7//1 6//1 10//1
f  10//1 9//1 11//1
f  11//1 9//1 12//1
f  11//1 12//1 13//1

